<?xml version="1.0" encoding="utf-8"?>
<!-- Uploaded to: SVG Repo, www.svgrepo.com, Generator: SVG Repo Mixer Tools -->
<svg width="800px" height="800px" viewBox="0 -43.5 1111 1111" class="icon"  version="1.1" xmlns="http://www.w3.org/2000/svg"><path d="M972.8 548.571429c0-222.354286-179.931429-402.285714-402.285714-402.285715s-402.285714 179.931429-402.285715 402.285715 179.931429 402.285714 402.285715 402.285714 402.285714-179.931429 402.285714-402.285714z m-716.8 0c0-173.348571 141.165714-314.514286 314.514286-314.514286s314.514286 141.165714 314.514285 314.514286-141.165714 314.514286-314.514285 314.514285-314.514286-141.165714-314.514286-314.514285z" fill="#0C92F2" /><path d="M526.628571 212.114286h87.771429v117.028571h-87.771429zM526.628571 768h87.771429v117.028571h-87.771429zM424.228571 102.4c-32.914286-32.182857-77.531429-49.737143-125.074285-49.005714-97.28 1.462857-174.08 81.92-172.617143 178.468571 0.731429 46.811429 20.48 91.428571 53.394286 122.88 8.045714 8.045714 17.554286 15.36 27.062857 21.211429l47.542857-73.874286c-5.12-2.925714-9.508571-6.582857-13.165714-10.971429-16.822857-16.091429-26.331429-38.034286-27.062858-61.44-0.731429-48.274286 38.034286-88.502857 86.308572-89.234285 23.405714-0.731429 46.08 8.777143 62.171428 24.868571 8.045714 8.045714 14.628571 17.554286 19.748572 27.794286l87.771428-35.108572c-8.777143-20.48-29.257143-39.497143-46.08-55.588571zM943.542857 373.028571c9.508571-6.582857 18.285714-13.897143 26.331429-21.942857 32.182857-32.914286 49.737143-77.531429 49.005714-125.074285-1.462857-97.28-81.92-174.08-178.468571-172.617143-46.811429 0.731429-91.428571 20.48-122.88 53.394285-10.24 10.24-31.451429 43.885714-37.302858 57.782858l81.92 32.182857c0.731429-0.731429 1.462857-2.194286 2.194286-3.657143 2.194286-2.925714 4.388571-7.314286 7.314286-10.971429 2.925714-4.388571 5.12-8.045714 7.314286-10.971428 0.731429-1.462857 2.194286-2.925714 2.194285-3.657143 16.091429-16.091429 38.034286-26.331429 61.44-26.331429 48.274286-0.731429 88.502857 38.034286 89.234286 86.308572 0.731429 23.405714-8.777143 46.08-24.868571 62.171428-3.657143 4.388571-8.045714 8.045714-13.165715 10.971429-2.194286 1.462857-5.12 2.925714-7.314285 4.388571l42.422857 76.8c5.12-2.194286 10.24-5.12 14.628571-8.777143z" fill="#0C92F2" /><path d="M570.514286 548.571429m-131.657143 0a131.657143 131.657143 0 1 0 263.314286 0 131.657143 131.657143 0 1 0-263.314286 0Z" fill="#A8C8E6" /><path d="M457.874286 480.548571c-1.462857 2.194286-7.314286 13.165714-8.777143 17.554286-6.582857 15.36-10.24 32.182857-10.24 50.468572 0 72.411429 59.245714 131.657143 131.657143 131.657142v-131.657142" fill="#61B6F2" /><path d="M570.514286 680.228571c73.142857 0 131.657143-59.245714 131.657143-131.657142 0-17.554286-13.165714-58.514286-15.36-62.171429-0.731429-2.194286-2.194286-3.657143-2.925715-5.851429-0.731429-1.462857-112.64 68.022857-112.64 68.022858l-0.731428 131.657142z" fill="#FC830A" /><path d="M310.857143 731.428571l62.171428 62.171429s0 4.388571-135.314285 135.314286c-54.857143 51.931429-113.371429-10.971429-113.371429-10.971429l186.514286-186.514286zM782.628571 808.96l62.171429-62.171429 171.885714 171.885715s-45.348571 52.662857-113.371428 10.971428c-120.685714-118.491429-120.685714-120.685714-120.685715-120.685714zM241.371429 504.685714h109.714285v87.771429h-109.714285zM789.942857 504.685714h117.028572v87.771429h-117.028572z" fill="#0C92F2" /></svg>